# xmcd
#
# Track frame offsets: 
#        150
#        16960
#        34877
#        46767
#        63762
#        75085
#        85932
#        105687
#        120407
#        133697
#        148150
#        165332
#        179320
#        195900
#        208125
#        223290
#        241740
#        257845
#
# Disc length: 3607 seconds
#
# Revision: 1
# Processed by: cddbd v1.5.2PL0 Copyright (c) Steve Scherf et al.
# Submitted via: ExactAudioCopyFreeDBPlugin 1.0
#
DISCID=ec0e1512
DTITLE=Shelby Lynne - This Is Shelby Lynne: The Best Of The Epic Years
DYEAR=2000
DGENRE=Country
TTITLE0=Stop Me
TTITLE1=Things Are Tough All OVer
TTITLE2=I Walk The Line
TTITLE3=Little Bits And Pieces
TTITLE4=The Hurtin' Side
TTITLE5=Lonely Weekends
TTITLE6=It Might Be Me
TTITLE7=You Can't Break A Broken Heart
TTITLE8=Your Love Stays With Me
TTITLE9=If I Could Bottle This Up
TTITLE10=A Lighter Shade Of Blue
TTITLE11=Under Your Spell Again
TTITLE12=Dog Day Afternoon
TTITLE13=Till A Better Memory Comes Along
TTITLE14=Alive And Well
TTITLE15=I'll Lie Myself To Sleep
TTITLE16=The Very First Lasting Love
TTITLE17=Don't Get Around Much Anymore
EXTD=
EXTT0=
EXTT1=
EXTT2=
EXTT3=
EXTT4=
EXTT5=
EXTT6=
EXTT7=
EXTT8=
EXTT9=
EXTT10=
EXTT11=
EXTT12=
EXTT13=
EXTT14=
EXTT15=
EXTT16=
EXTT17=
PLAYORDER=
